# xmcd
#
# Track frame offsets:
#       150
#       23788
#       53720
#       80385
#       96750
#       118940
#       132535
#       150940
#       177008
#       196135
#       209263
#       233103
#       254505
#       268390
#       279783
#       298235
#
# Disc length: 4155 seconds
#
# Revision: 2
# Processed by: cddbd v1.4PL0 Copyright (c) Steve Scherf et al.
# Submitted via: MusiCat 1.1
#
DISCID=e3103910
DTITLE=Denny Freeman and the Cobras - Denny Freeman and the Cobras
DYEAR=1991
DGENRE=
TTITLE0=Tomcat
TTITLE1=Harlem Shuffle
TTITLE2=First to let you know
TTITLE3=Blow, Joe Blow (Crazy bout a Saxophone)
TTITLE4=Learn to treat me better
TTITLE5=Chekin' up on my baby
TTITLE6=House Party
TTITLE7=I Smell Trouble
TTITLE8=See See Baby
TTITLE9=I'll go crazy
TTITLE10=Gangster of Love
TTITLE11=Playboy Hop
TTITLE12=Mary Sue
TTITLE13=That's how strong my love is
TTITLE14=Further on up the road
TTITLE15=Peter Gunn
EXTD=1991\n\n\nsubmitted by Stamppot
EXTT0=
EXTT1=
EXTT2=
EXTT3=
EXTT4=
EXTT5=
EXTT6=
EXTT7=
EXTT8=
EXTT9=
EXTT10=
EXTT11=
EXTT12=
EXTT13=
EXTT14=
EXTT15=
PLAYORDER=
